<svg width="388" height="325" viewBox="0 0 388 325" fill="none" xmlns="http://www.w3.org/2000/svg">
<g filter="url(#filter0_d_10_730)">
<path d="M20 37C20 28.1634 27.1634 21 36 21H340C348.837 21 356 28.1634 356 37V269C356 277.837 348.837 285 340 285H36C27.1634 285 20 277.837 20 269V37Z" fill="#18181B"/>
<path d="M100.43 56H95.7211V41.4545H100.579C102.004 41.4545 103.228 41.7457 104.251 42.3281C105.274 42.9058 106.057 43.7367 106.602 44.821C107.151 45.9006 107.426 47.1955 107.426 48.706C107.426 50.2211 107.149 51.5232 106.595 52.6122C106.045 53.7012 105.25 54.5393 104.208 55.1264C103.167 55.7088 101.907 56 100.43 56ZM97.9157 54.0824H100.309C101.417 54.0824 102.338 53.8741 103.072 53.4574C103.806 53.036 104.355 52.4276 104.72 51.6321C105.084 50.8319 105.267 49.8565 105.267 48.706C105.267 47.5649 105.084 46.5966 104.72 45.8011C104.36 45.0057 103.822 44.402 103.107 43.9901C102.392 43.5781 101.505 43.3722 100.444 43.3722H97.9157V54.0824ZM114.686 56.2202C113.611 56.2202 112.685 55.9905 111.909 55.5312C111.137 55.0672 110.541 54.4162 110.119 53.5781C109.702 52.7353 109.494 51.7481 109.494 50.6165C109.494 49.4991 109.702 48.5142 110.119 47.6619C110.541 46.8097 111.128 46.1444 111.881 45.6662C112.638 45.188 113.523 44.9489 114.537 44.9489C115.152 44.9489 115.749 45.0507 116.327 45.2543C116.904 45.4579 117.423 45.7775 117.882 46.2131C118.341 46.6487 118.703 47.2145 118.969 47.9105C119.234 48.6018 119.366 49.4422 119.366 50.4318V51.1847H110.694V49.5938H117.285C117.285 49.035 117.172 48.5402 116.944 48.1094C116.717 47.6738 116.398 47.3305 115.986 47.0795C115.578 46.8286 115.1 46.7031 114.551 46.7031C113.954 46.7031 113.434 46.8499 112.988 47.1435C112.548 47.4323 112.207 47.8111 111.966 48.2798C111.729 48.7438 111.611 49.2481 111.611 49.7926V51.0355C111.611 51.7647 111.738 52.3849 111.994 52.8963C112.255 53.4077 112.617 53.7983 113.081 54.0682C113.545 54.3333 114.087 54.4659 114.707 54.4659C115.11 54.4659 115.477 54.4091 115.808 54.2955C116.14 54.1771 116.426 54.0019 116.667 53.7699C116.909 53.5379 117.094 53.2514 117.221 52.9105L119.231 53.2727C119.07 53.8646 118.782 54.383 118.365 54.8281C117.953 55.2685 117.434 55.6117 116.809 55.858C116.189 56.0994 115.481 56.2202 114.686 56.2202ZM121.722 56V45.0909H123.846V56H121.722ZM122.795 43.4077C122.426 43.4077 122.108 43.2846 121.843 43.0384C121.583 42.7874 121.453 42.4891 121.453 42.1435C121.453 41.7931 121.583 41.4948 121.843 41.2486C122.108 40.9976 122.426 40.8722 122.795 40.8722C123.164 40.8722 123.479 40.9976 123.74 41.2486C124.005 41.4948 124.137 41.7931 124.137 42.1435C124.137 42.4891 124.005 42.7874 123.74 43.0384C123.479 43.2846 123.164 43.4077 122.795 43.4077ZM128.379 45.0909L130.787 49.3381L133.216 45.0909H135.538L132.136 50.5455L135.567 56H133.244L130.787 51.9233L128.336 56H126.007L129.402 50.5455L126.05 45.0909H128.379ZM141.991 56.2202C140.916 56.2202 139.99 55.9905 139.214 55.5312C138.442 55.0672 137.845 54.4162 137.424 53.5781C137.007 52.7353 136.799 51.7481 136.799 50.6165C136.799 49.4991 137.007 48.5142 137.424 47.6619C137.845 46.8097 138.432 46.1444 139.185 45.6662C139.943 45.188 140.828 44.9489 141.841 44.9489C142.457 44.9489 143.054 45.0507 143.631 45.2543C144.209 45.4579 144.727 45.7775 145.187 46.2131C145.646 46.6487 146.008 47.2145 146.273 47.9105C146.538 48.6018 146.671 49.4422 146.671 50.4318V51.1847H137.999V49.5938H144.59C144.59 49.035 144.476 48.5402 144.249 48.1094C144.022 47.6738 143.702 47.3305 143.29 47.0795C142.883 46.8286 142.405 46.7031 141.856 46.7031C141.259 46.7031 140.738 46.8499 140.293 47.1435C139.853 47.4323 139.512 47.8111 139.27 48.2798C139.034 48.7438 138.915 49.2481 138.915 49.7926V51.0355C138.915 51.7647 139.043 52.3849 139.299 52.8963C139.559 53.4077 139.921 53.7983 140.385 54.0682C140.849 54.3333 141.392 54.4659 142.012 54.4659C142.414 54.4659 142.781 54.4091 143.113 54.2955C143.444 54.1771 143.731 54.0019 143.972 53.7699C144.214 53.5379 144.398 53.2514 144.526 52.9105L146.536 53.2727C146.375 53.8646 146.086 54.383 145.67 54.8281C145.258 55.2685 144.739 55.6117 144.114 55.858C143.494 56.0994 142.786 56.2202 141.991 56.2202ZM162.495 47.7543L160.57 48.0952C160.49 47.849 160.362 47.6146 160.187 47.392C160.016 47.1695 159.784 46.9872 159.491 46.8452C159.197 46.7031 158.83 46.6321 158.39 46.6321C157.788 46.6321 157.287 46.767 156.884 47.0369C156.482 47.3021 156.28 47.6454 156.28 48.0668C156.28 48.4313 156.415 48.7249 156.685 48.9474C156.955 49.17 157.391 49.3523 157.992 49.4943L159.725 49.892C160.729 50.1241 161.477 50.4815 161.969 50.9645C162.462 51.4474 162.708 52.0748 162.708 52.8466C162.708 53.5 162.519 54.0824 162.14 54.5938C161.766 55.1004 161.242 55.4981 160.57 55.7869C159.903 56.0758 159.128 56.2202 158.248 56.2202C157.026 56.2202 156.029 55.9598 155.258 55.4389C154.486 54.9134 154.012 54.1676 153.837 53.2017L155.89 52.8892C156.018 53.4242 156.28 53.8291 156.678 54.1037C157.076 54.3736 157.594 54.5085 158.233 54.5085C158.93 54.5085 159.486 54.3641 159.903 54.0753C160.319 53.7817 160.528 53.4242 160.528 53.0028C160.528 52.6619 160.4 52.3755 160.144 52.1435C159.893 51.9115 159.507 51.7363 158.986 51.6179L157.14 51.2131C156.122 50.9811 155.369 50.6117 154.881 50.1051C154.398 49.5985 154.157 48.9569 154.157 48.1804C154.157 47.5365 154.337 46.973 154.697 46.4901C155.056 46.0071 155.554 45.6307 156.188 45.3608C156.823 45.0862 157.549 44.9489 158.368 44.9489C159.547 44.9489 160.475 45.2045 161.153 45.7159C161.83 46.2225 162.277 46.902 162.495 47.7543ZM169.744 56.2202C168.67 56.2202 167.744 55.9905 166.968 55.5312C166.196 55.0672 165.599 54.4162 165.178 53.5781C164.761 52.7353 164.553 51.7481 164.553 50.6165C164.553 49.4991 164.761 48.5142 165.178 47.6619C165.599 46.8097 166.186 46.1444 166.939 45.6662C167.697 45.188 168.582 44.9489 169.595 44.9489C170.211 44.9489 170.807 45.0507 171.385 45.2543C171.963 45.4579 172.481 45.7775 172.941 46.2131C173.4 46.6487 173.762 47.2145 174.027 47.9105C174.292 48.6018 174.425 49.4422 174.425 50.4318V51.1847H165.753V49.5938H172.344C172.344 49.035 172.23 48.5402 172.003 48.1094C171.776 47.6738 171.456 47.3305 171.044 47.0795C170.637 46.8286 170.159 46.7031 169.61 46.7031C169.013 46.7031 168.492 46.8499 168.047 47.1435C167.607 47.4323 167.266 47.8111 167.024 48.2798C166.788 48.7438 166.669 49.2481 166.669 49.7926V51.0355C166.669 51.7647 166.797 52.3849 167.053 52.8963C167.313 53.4077 167.675 53.7983 168.139 54.0682C168.603 54.3333 169.146 54.4659 169.766 54.4659C170.168 54.4659 170.535 54.4091 170.867 54.2955C171.198 54.1771 171.485 54.0019 171.726 53.7699C171.968 53.5379 172.152 53.2514 172.28 52.9105L174.29 53.2727C174.129 53.8646 173.84 54.383 173.423 54.8281C173.012 55.2685 172.493 55.6117 171.868 55.858C171.248 56.0994 170.54 56.2202 169.744 56.2202ZM183.692 51.4759V45.0909H185.822V56H183.734V54.1108H183.621C183.37 54.6932 182.967 55.1785 182.413 55.5668C181.864 55.9503 181.18 56.142 180.361 56.142C179.66 56.142 179.04 55.9882 178.5 55.6804C177.965 55.3679 177.543 54.9062 177.236 54.2955C176.933 53.6847 176.781 52.9295 176.781 52.0298V45.0909H178.905V51.7741C178.905 52.5175 179.111 53.1094 179.523 53.5497C179.934 53.9901 180.47 54.2102 181.128 54.2102C181.525 54.2102 181.921 54.1108 182.314 53.9119C182.711 53.7131 183.041 53.4124 183.301 53.0099C183.566 52.6075 183.696 52.0961 183.692 51.4759ZM199.16 45.0909V46.7955H192.996V45.0909H199.16ZM194.686 56V43.8267C194.686 43.1449 194.835 42.5791 195.133 42.1293C195.432 41.6747 195.827 41.3362 196.319 41.1136C196.812 40.8864 197.347 40.7727 197.925 40.7727C198.351 40.7727 198.715 40.8082 199.018 40.8793C199.321 40.9455 199.546 41.0071 199.693 41.0639L199.196 42.7827C199.096 42.7543 198.969 42.7211 198.812 42.6832C198.656 42.6406 198.467 42.6193 198.244 42.6193C197.728 42.6193 197.359 42.7472 197.136 43.0028C196.918 43.2585 196.809 43.6278 196.809 44.1108V56H194.686ZM205.623 56.2202C204.549 56.2202 203.623 55.9905 202.846 55.5312C202.075 55.0672 201.478 54.4162 201.057 53.5781C200.64 52.7353 200.432 51.7481 200.432 50.6165C200.432 49.4991 200.64 48.5142 201.057 47.6619C201.478 46.8097 202.065 46.1444 202.818 45.6662C203.576 45.188 204.461 44.9489 205.474 44.9489C206.09 44.9489 206.686 45.0507 207.264 45.2543C207.842 45.4579 208.36 45.7775 208.819 46.2131C209.279 46.6487 209.641 47.2145 209.906 47.9105C210.171 48.6018 210.304 49.4422 210.304 50.4318V51.1847H201.632V49.5938H208.223C208.223 49.035 208.109 48.5402 207.882 48.1094C207.655 47.6738 207.335 47.3305 206.923 47.0795C206.516 46.8286 206.038 46.7031 205.488 46.7031C204.892 46.7031 204.371 46.8499 203.926 47.1435C203.486 47.4323 203.145 47.8111 202.903 48.2798C202.666 48.7438 202.548 49.2481 202.548 49.7926V51.0355C202.548 51.7647 202.676 52.3849 202.932 52.8963C203.192 53.4077 203.554 53.7983 204.018 54.0682C204.482 54.3333 205.024 54.4659 205.645 54.4659C206.047 54.4659 206.414 54.4091 206.746 54.2955C207.077 54.1771 207.363 54.0019 207.605 53.7699C207.846 53.5379 208.031 53.2514 208.159 52.9105L210.169 53.2727C210.008 53.8646 209.719 54.383 209.302 54.8281C208.89 55.2685 208.372 55.6117 207.747 55.858C207.127 56.0994 206.419 56.2202 205.623 56.2202ZM217.362 56.2202C216.287 56.2202 215.361 55.9905 214.585 55.5312C213.813 55.0672 213.216 54.4162 212.795 53.5781C212.378 52.7353 212.17 51.7481 212.17 50.6165C212.17 49.4991 212.378 48.5142 212.795 47.6619C213.216 46.8097 213.803 46.1444 214.556 45.6662C215.314 45.188 216.199 44.9489 217.213 44.9489C217.828 44.9489 218.425 45.0507 219.002 45.2543C219.58 45.4579 220.098 45.7775 220.558 46.2131C221.017 46.6487 221.379 47.2145 221.644 47.9105C221.91 48.6018 222.042 49.4422 222.042 50.4318V51.1847H213.37V49.5938H219.961C219.961 49.035 219.847 48.5402 219.62 48.1094C219.393 47.6738 219.073 47.3305 218.661 47.0795C218.254 46.8286 217.776 46.7031 217.227 46.7031C216.63 46.7031 216.109 46.8499 215.664 47.1435C215.224 47.4323 214.883 47.8111 214.642 48.2798C214.405 48.7438 214.286 49.2481 214.286 49.7926V51.0355C214.286 51.7647 214.414 52.3849 214.67 52.8963C214.93 53.4077 215.293 53.7983 215.757 54.0682C216.221 54.3333 216.763 54.4659 217.383 54.4659C217.785 54.4659 218.152 54.4091 218.484 54.2955C218.815 54.1771 219.102 54.0019 219.343 53.7699C219.585 53.5379 219.769 53.2514 219.897 52.9105L221.907 53.2727C221.746 53.8646 221.457 54.383 221.041 54.8281C220.629 55.2685 220.11 55.6117 219.485 55.858C218.865 56.0994 218.157 56.2202 217.362 56.2202ZM228.482 56.2131C227.601 56.2131 226.815 55.9882 226.124 55.5384C225.438 55.0838 224.898 54.4375 224.505 53.5994C224.117 52.7566 223.922 51.7457 223.922 50.5668C223.922 49.3878 224.119 48.3793 224.512 47.5412C224.91 46.7031 225.454 46.0616 226.145 45.6165C226.837 45.1714 227.62 44.9489 228.496 44.9489C229.173 44.9489 229.718 45.0625 230.13 45.2898C230.546 45.5123 230.868 45.7727 231.096 46.071C231.328 46.3693 231.508 46.6321 231.635 46.8594H231.763V41.4545H233.887V56H231.813V54.3026H231.635C231.508 54.5346 231.323 54.7997 231.081 55.098C230.845 55.3963 230.518 55.6567 230.101 55.8793C229.685 56.1018 229.145 56.2131 228.482 56.2131ZM228.951 54.402C229.562 54.402 230.078 54.241 230.499 53.919C230.925 53.5923 231.247 53.1402 231.465 52.5625C231.688 51.9848 231.799 51.3125 231.799 50.5455C231.799 49.7879 231.69 49.125 231.472 48.5568C231.254 47.9886 230.935 47.5459 230.513 47.2287C230.092 46.9115 229.571 46.7528 228.951 46.7528C228.312 46.7528 227.779 46.9186 227.353 47.25C226.927 47.5814 226.605 48.0336 226.387 48.6065C226.174 49.1795 226.067 49.8258 226.067 50.5455C226.067 51.2746 226.176 51.9304 226.394 52.5128C226.612 53.0952 226.934 53.5568 227.36 53.8977C227.791 54.2339 228.321 54.402 228.951 54.402ZM237.088 56V41.4545H239.212V46.8594H239.34C239.463 46.6321 239.64 46.3693 239.872 46.071C240.104 45.7727 240.426 45.5123 240.838 45.2898C241.25 45.0625 241.795 44.9489 242.472 44.9489C243.352 44.9489 244.138 45.1714 244.83 45.6165C245.521 46.0616 246.063 46.7031 246.456 47.5412C246.854 48.3793 247.053 49.3878 247.053 50.5668C247.053 51.7457 246.856 52.7566 246.463 53.5994C246.07 54.4375 245.53 55.0838 244.844 55.5384C244.157 55.9882 243.374 56.2131 242.493 56.2131C241.83 56.2131 241.288 56.1018 240.867 55.8793C240.45 55.6567 240.123 55.3963 239.887 55.098C239.65 54.7997 239.468 54.5346 239.34 54.3026H239.162V56H237.088ZM239.169 50.5455C239.169 51.3125 239.28 51.9848 239.503 52.5625C239.726 53.1402 240.048 53.5923 240.469 53.919C240.89 54.241 241.406 54.402 242.017 54.402C242.652 54.402 243.182 54.2339 243.608 53.8977C244.034 53.5568 244.356 53.0952 244.574 52.5128C244.797 51.9304 244.908 51.2746 244.908 50.5455C244.908 49.8258 244.799 49.1795 244.581 48.6065C244.368 48.0336 244.046 47.5814 243.615 47.25C243.189 46.9186 242.656 46.7528 242.017 46.7528C241.402 46.7528 240.881 46.9115 240.455 47.2287C240.033 47.5459 239.714 47.9886 239.496 48.5568C239.278 49.125 239.169 49.7879 239.169 50.5455ZM252.612 56.2415C251.921 56.2415 251.296 56.1136 250.737 55.858C250.178 55.5975 249.736 55.2211 249.409 54.7287C249.087 54.2363 248.926 53.6326 248.926 52.9176C248.926 52.3021 249.044 51.7955 249.281 51.3977C249.518 51 249.837 50.6851 250.24 50.4531C250.642 50.2211 251.092 50.0459 251.589 49.9276C252.086 49.8092 252.593 49.7192 253.109 49.6577C253.763 49.5819 254.293 49.5204 254.7 49.473C255.107 49.4209 255.403 49.3381 255.588 49.2244C255.773 49.1108 255.865 48.9261 255.865 48.6705V48.6207C255.865 48.0005 255.69 47.5199 255.339 47.179C254.994 46.8381 254.478 46.6676 253.791 46.6676C253.076 46.6676 252.513 46.8262 252.101 47.1435C251.693 47.456 251.412 47.804 251.256 48.1875L249.26 47.733C249.497 47.0701 249.842 46.535 250.297 46.1278C250.756 45.7159 251.284 45.4176 251.881 45.233C252.477 45.0436 253.104 44.9489 253.763 44.9489C254.198 44.9489 254.66 45.0009 255.148 45.1051C255.64 45.2045 256.099 45.3892 256.525 45.6591C256.956 45.929 257.309 46.3149 257.584 46.8168C257.858 47.3139 257.996 47.9602 257.996 48.7557V56H255.922V54.5085H255.836C255.699 54.7831 255.493 55.053 255.219 55.3182C254.944 55.5833 254.591 55.8035 254.16 55.9787C253.729 56.1539 253.213 56.2415 252.612 56.2415ZM253.074 54.5369C253.661 54.5369 254.163 54.4209 254.579 54.1889C255.001 53.9569 255.32 53.6539 255.538 53.2798C255.761 52.901 255.872 52.4962 255.872 52.0653V50.6591C255.796 50.7348 255.649 50.8059 255.432 50.8722C255.219 50.9337 254.975 50.9882 254.7 51.0355C254.425 51.0781 254.158 51.1184 253.898 51.1562C253.637 51.1894 253.419 51.2178 253.244 51.2415C252.832 51.2936 252.456 51.3812 252.115 51.5043C251.779 51.6274 251.509 51.8049 251.305 52.0369C251.106 52.2642 251.007 52.5672 251.007 52.946C251.007 53.4716 251.201 53.8693 251.589 54.1392C251.978 54.4044 252.472 54.5369 253.074 54.5369ZM265.419 56.2202C264.363 56.2202 263.454 55.9811 262.692 55.5028C261.934 55.0199 261.352 54.3546 260.945 53.5071C260.538 52.6596 260.334 51.6889 260.334 50.5952C260.334 49.4872 260.542 48.5095 260.959 47.6619C261.376 46.8097 261.963 46.1444 262.72 45.6662C263.478 45.188 264.37 44.9489 265.398 44.9489C266.227 44.9489 266.965 45.1027 267.614 45.4105C268.262 45.7135 268.786 46.1397 269.183 46.6889C269.586 47.2382 269.825 47.8797 269.901 48.6136H267.834C267.72 48.1023 267.46 47.6619 267.053 47.2926C266.65 46.9233 266.11 46.7386 265.433 46.7386C264.842 46.7386 264.323 46.8949 263.878 47.2074C263.438 47.5152 263.094 47.9555 262.848 48.5284C262.602 49.0966 262.479 49.7689 262.479 50.5455C262.479 51.3409 262.6 52.0275 262.841 52.6051C263.083 53.1828 263.423 53.6302 263.864 53.9474C264.309 54.2647 264.832 54.4233 265.433 54.4233C265.836 54.4233 266.2 54.3499 266.527 54.2031C266.859 54.0516 267.136 53.8362 267.358 53.5568C267.585 53.2775 267.744 52.9413 267.834 52.5483H269.901C269.825 53.2538 269.595 53.8835 269.212 54.4375C268.828 54.9915 268.315 55.4271 267.671 55.7443C267.031 56.0616 266.281 56.2202 265.419 56.2202ZM274.125 52.2997L274.111 49.7074H274.48L278.827 45.0909H281.369L276.412 50.3466H276.078L274.125 52.2997ZM272.172 56V41.4545H274.295V56H272.172ZM279.061 56L275.155 50.8153L276.618 49.331L281.667 56H279.061Z" fill="#F4F4F5"/>
<path d="M36 101C36 96.5817 39.5817 93 44 93H124C128.418 93 132 96.5817 132 101V197C132 201.418 128.418 205 124 205H44C39.5817 205 36 201.418 36 197V101Z" fill="#27272A"/>
<path d="M73.9167 119C74.9167 118 74.1667 115 72.4787 115C70.7907 115 70.9167 117 71.9167 117C72.9167 117 72.9167 119 72.9167 120C72.9167 121 73.9167 119 73.9167 119ZM69.7337 120.72C70.7337 119.72 69.9837 116.72 68.2957 116.72C66.6077 116.72 66.7337 118.72 67.7337 118.72C68.7337 118.72 68.7337 120.72 68.7337 121.72C68.7337 122.72 69.7337 120.72 69.7337 120.72Z" fill="#AA8DD8"/>
<path d="M96.1087 147.856C96.2977 148.664 97.3357 150.136 98.1407 149.947C98.9467 149.757 99.2177 147.976 99.0287 147.17C98.8397 146.362 98.0307 145.863 97.2247 146.053C96.4197 146.243 95.9187 147.05 96.1087 147.856V147.856ZM90.6747 148.505C90.6777 149.335 91.3557 151.003 92.1837 151C93.0117 150.996 93.6777 149.323 93.6747 148.494C93.6717 147.665 92.9977 146.997 92.1697 146.999C91.3417 147.003 90.6717 147.676 90.6747 148.505V148.505ZM85.4037 146.059C85.0777 146.823 85.0387 148.622 85.7997 148.949C86.5627 149.273 87.8367 148.002 88.1627 147.239C88.4877 146.477 88.1347 145.596 87.3737 145.269C86.6117 144.944 85.7307 145.296 85.4037 146.059V146.059ZM80.3727 135.019C79.5607 135.191 78.0647 136.192 78.2337 137.002C78.4067 137.812 80.1787 138.126 80.9907 137.955C81.8017 137.784 82.3197 136.988 82.1507 136.178C81.9787 135.368 81.1857 134.848 80.3727 135.019ZM78.3357 130.019C77.5237 130.191 76.0277 131.192 76.1967 132.002C76.3697 132.812 78.1417 133.126 78.9537 132.955C79.7647 132.784 80.2827 131.988 80.1137 131.178C79.9417 130.368 79.1477 129.848 78.3357 130.019V130.019Z" fill="#744EAA"/>
<path d="M93.7457 149C96.5767 149 98.6717 148.123 99.0117 147.973C101.283 146.963 102.305 144.304 101.296 142.034C100.297 139.784 97.6797 138.759 95.4237 139.72C95.2907 139.77 93.6307 140.369 92.0807 139.648C90.2297 138.787 89.0857 136.339 88.4527 134.439C88.3087 134.009 88.0677 133.165 87.7667 132.123C85.9007 125.652 84.9347 123.838 83.7837 122.303C80.0727 117.352 74.1917 117.007 71.3007 117.587C68.8637 118.074 67.2827 120.445 67.7707 122.882C68.2587 125.32 70.6307 126.902 73.0667 126.412C73.2287 126.386 75.2707 126.106 76.4907 127.581C77.1337 128.868 78.5707 132.709 79.1207 134.615C79.4667 135.814 79.7497 136.786 79.9147 137.282C81.6877 142.599 84.5807 146.175 88.5177 147.911C90.3697 148.729 92.1717 149 93.7457 149Z" fill="#9266CC"/>
<path d="M73.1837 121C73.736 121 74.1837 120.552 74.1837 120C74.1837 119.448 73.736 119 73.1837 119C72.6314 119 72.1837 119.448 72.1837 120C72.1837 120.552 72.6314 121 73.1837 121Z" fill="#202024"/>
<path d="M97.4248 147.964C97.3358 147.964 97.2448 147.952 97.1558 147.928C96.6238 147.78 96.3118 147.229 96.4598 146.697C97.2168 143.975 95.6898 142.155 95.6748 142.137C95.3158 141.718 95.3628 141.086 95.7818 140.727C96.1998 140.368 96.8328 140.415 97.1918 140.834C97.2838 140.941 99.4258 143.494 98.3868 147.231C98.2648 147.674 97.8618 147.964 97.4248 147.964V147.964ZM90.2258 147.401C89.9808 147.401 89.7358 147.312 89.5418 147.131C89.1388 146.753 89.1178 146.12 89.4948 145.717C90.9798 144.13 90.9478 141.524 90.9468 141.497C90.9308 140.945 91.3658 140.485 91.9188 140.469C92.4608 140.464 92.9318 140.888 92.9468 141.441C92.9508 141.58 93.0198 144.878 90.9558 147.085C90.7588 147.295 90.4918 147.401 90.2258 147.401V147.401ZM81.6838 138.705C81.2038 138.705 80.7798 138.358 80.6988 137.868C80.6088 137.324 80.9768 136.808 81.5218 136.719C84.5958 136.209 86.2958 134.342 86.3128 134.323C86.6778 133.913 87.3108 133.874 87.7218 134.239C88.1338 134.604 88.1748 135.232 87.8128 135.645C87.7258 135.744 85.6568 138.06 81.8488 138.691C81.7928 138.701 81.7378 138.705 81.6838 138.705V138.705ZM84.6048 143.562C84.1798 143.562 83.7858 143.29 83.6508 142.864C83.4848 142.338 83.7768 141.775 84.3028 141.609C86.9958 140.756 88.1828 138.779 88.1948 138.759C88.4748 138.282 89.0868 138.122 89.5628 138.402C90.0398 138.681 90.1988 139.295 89.9198 139.77C89.8568 139.878 88.3248 142.433 84.9068 143.514C84.8058 143.547 84.7038 143.562 84.6048 143.562V143.562ZM79.9858 132.892C79.4898 132.892 79.0588 132.523 78.9948 132.017C78.9258 131.469 79.3138 130.969 79.8618 130.899C82.5508 130.559 84.5188 128.928 84.5378 128.911C84.9598 128.557 85.5908 128.608 85.9458 129.03C86.3018 129.451 86.2508 130.08 85.8308 130.437C85.7338 130.52 83.4108 132.466 80.1128 132.883C80.0698 132.889 80.0278 132.892 79.9858 132.892V132.892ZM78.1648 128.125C77.7398 128.125 77.3458 127.852 77.2108 127.424C77.0458 126.897 77.3378 126.336 77.8648 126.17C80.9948 125.187 82.1178 123.478 82.1638 123.406C82.4588 122.944 83.0748 122.801 83.5388 123.094C84.0038 123.386 84.1498 123.993 83.8628 124.46C83.8028 124.557 82.3568 126.856 78.4638 128.079C78.3648 128.11 78.2638 128.125 78.1648 128.125V128.125Z" fill="#744EAA"/>
<path d="M53.4682 178V167.818H57.0975C57.8896 167.818 58.5459 167.962 59.0662 168.251C59.5866 168.539 59.976 168.933 60.2346 169.434C60.4931 169.931 60.6223 170.491 60.6223 171.114C60.6223 171.741 60.4914 172.304 60.2296 172.805C59.9711 173.302 59.58 173.696 59.0563 173.988C58.5359 174.276 57.8813 174.42 57.0925 174.42H54.5968V173.118H56.9533C57.4538 173.118 57.8598 173.032 58.1713 172.859C58.4829 172.684 58.7116 172.445 58.8574 172.143C59.0033 171.842 59.0762 171.499 59.0762 171.114C59.0762 170.73 59.0033 170.388 58.8574 170.09C58.7116 169.792 58.4812 169.558 58.1664 169.389C57.8548 169.22 57.4438 169.136 56.9334 169.136H55.0044V178H53.4682ZM62.304 178V170.364H63.7408V171.577H63.8203C63.9595 171.166 64.2048 170.843 64.5561 170.607C64.9107 170.369 65.3118 170.249 65.7592 170.249C65.852 170.249 65.9614 170.253 66.0874 170.259C66.2166 170.266 66.3177 170.274 66.3906 170.284V171.706C66.331 171.689 66.2249 171.671 66.0724 171.651C65.92 171.628 65.7675 171.616 65.6151 171.616C65.2637 171.616 64.9505 171.691 64.6754 171.84C64.4036 171.986 64.1882 172.19 64.0291 172.452C63.87 172.71 63.7905 173.005 63.7905 173.337V178H62.304ZM70.6202 178.154C69.9043 178.154 69.2795 177.99 68.7459 177.662C68.2123 177.334 67.798 176.875 67.503 176.285C67.208 175.695 67.0605 175.005 67.0605 174.217C67.0605 173.424 67.208 172.732 67.503 172.138C67.798 171.545 68.2123 171.085 68.7459 170.756C69.2795 170.428 69.9043 170.264 70.6202 170.264C71.3361 170.264 71.9609 170.428 72.4945 170.756C73.0281 171.085 73.4424 171.545 73.7374 172.138C74.0324 172.732 74.1799 173.424 74.1799 174.217C74.1799 175.005 74.0324 175.695 73.7374 176.285C73.4424 176.875 73.0281 177.334 72.4945 177.662C71.9609 177.99 71.3361 178.154 70.6202 178.154ZM70.6252 176.906C71.0892 176.906 71.4737 176.784 71.7786 176.538C72.0835 176.293 72.3089 175.967 72.4547 175.559C72.6039 175.151 72.6784 174.702 72.6784 174.212C72.6784 173.724 72.6039 173.277 72.4547 172.869C72.3089 172.458 72.0835 172.129 71.7786 171.88C71.4737 171.631 71.0892 171.507 70.6252 171.507C70.1578 171.507 69.7701 171.631 69.4618 171.88C69.1569 172.129 68.9299 172.458 68.7807 172.869C68.6349 173.277 68.562 173.724 68.562 174.212C68.562 174.702 68.6349 175.151 68.7807 175.559C68.9299 175.967 69.1569 176.293 69.4618 176.538C69.7701 176.784 70.1578 176.906 70.6252 176.906ZM75.9585 178V167.818H77.445V171.602H77.5344C77.6206 171.442 77.7449 171.259 77.9073 171.05C78.0697 170.841 78.2951 170.659 78.5835 170.503C78.8718 170.344 79.253 170.264 79.7269 170.264C80.3434 170.264 80.8936 170.42 81.3775 170.732C81.8614 171.043 82.2409 171.492 82.516 172.079C82.7944 172.665 82.9336 173.371 82.9336 174.197C82.9336 175.022 82.796 175.73 82.521 176.32C82.2459 176.906 81.868 177.359 81.3874 177.677C80.9068 177.992 80.3583 178.149 79.7418 178.149C79.2778 178.149 78.8983 178.071 78.6033 177.915C78.3117 177.76 78.083 177.577 77.9173 177.369C77.7515 177.16 77.6239 176.974 77.5344 176.812H77.4102V178H75.9585ZM77.4151 174.182C77.4151 174.719 77.493 175.189 77.6488 175.594C77.8046 175.998 78.0299 176.315 78.3249 176.543C78.6199 176.769 78.9812 176.881 79.4087 176.881C79.8529 176.881 80.2241 176.764 80.5224 176.528C80.8207 176.29 81.046 175.967 81.1985 175.559C81.3543 175.151 81.4322 174.692 81.4322 174.182C81.4322 173.678 81.3559 173.226 81.2035 172.825C81.0543 172.424 80.829 172.107 80.5273 171.875C80.229 171.643 79.8562 171.527 79.4087 171.527C78.9779 171.527 78.6133 171.638 78.315 171.86C78.02 172.082 77.7963 172.392 77.6438 172.79C77.4914 173.187 77.4151 173.652 77.4151 174.182ZM86.0893 167.818V178H84.6028V167.818H86.0893ZM91.3803 178.154C90.628 178.154 89.98 177.993 89.4364 177.672C88.8962 177.347 88.4786 176.891 88.1836 176.305C87.8919 175.715 87.7461 175.024 87.7461 174.232C87.7461 173.449 87.8919 172.76 88.1836 172.163C88.4786 171.567 88.8896 171.101 89.4165 170.766C89.9469 170.432 90.5666 170.264 91.2759 170.264C91.7068 170.264 92.1244 170.335 92.5288 170.478C92.9331 170.621 93.296 170.844 93.6175 171.149C93.939 171.454 94.1926 171.85 94.3782 172.337C94.5638 172.821 94.6566 173.41 94.6566 174.102V174.629H88.5863V173.516H93.1999C93.1999 173.125 93.1204 172.778 92.9613 172.477C92.8022 172.172 92.5785 171.931 92.2901 171.756C92.0051 171.58 91.6703 171.492 91.2859 171.492C90.8683 171.492 90.5037 171.595 90.1921 171.8C89.8839 172.003 89.6452 172.268 89.4762 172.596C89.3105 172.921 89.2276 173.274 89.2276 173.655V174.525C89.2276 175.035 89.3171 175.469 89.4961 175.827C89.6784 176.185 89.9319 176.459 90.2567 176.648C90.5816 176.833 90.9611 176.926 91.3952 176.926C91.677 176.926 91.9338 176.886 92.1658 176.807C92.3978 176.724 92.5984 176.601 92.7674 176.439C92.9364 176.277 93.0657 176.076 93.1552 175.837L94.5621 176.091C94.4495 176.505 94.2473 176.868 93.9556 177.18C93.6673 177.488 93.3043 177.728 92.8668 177.901C92.4326 178.07 91.9371 178.154 91.3803 178.154ZM96.3059 178V170.364H97.7328V171.607H97.8272C97.9863 171.186 98.2465 170.857 98.6078 170.622C98.969 170.384 99.4016 170.264 99.9054 170.264C100.416 170.264 100.843 170.384 101.188 170.622C101.536 170.861 101.793 171.189 101.959 171.607H102.038C102.22 171.199 102.51 170.874 102.908 170.632C103.306 170.387 103.78 170.264 104.33 170.264C105.023 170.264 105.588 170.481 106.025 170.915C106.466 171.35 106.687 172.004 106.687 172.879V178H105.2V173.018C105.2 172.501 105.059 172.127 104.778 171.895C104.496 171.663 104.159 171.547 103.768 171.547C103.284 171.547 102.908 171.696 102.64 171.994C102.371 172.289 102.237 172.669 102.237 173.133V178H100.756V172.924C100.756 172.51 100.626 172.177 100.368 171.925C100.109 171.673 99.7728 171.547 99.3585 171.547C99.0768 171.547 98.8166 171.621 98.5779 171.771C98.3426 171.916 98.152 172.12 98.0062 172.382C97.8637 172.644 97.7924 172.947 97.7924 173.292V178H96.3059ZM110.901 178.169C110.417 178.169 109.98 178.08 109.589 177.901C109.198 177.718 108.888 177.455 108.659 177.11C108.434 176.765 108.321 176.343 108.321 175.842C108.321 175.411 108.404 175.057 108.57 174.778C108.735 174.5 108.959 174.28 109.241 174.117C109.522 173.955 109.837 173.832 110.185 173.749C110.533 173.666 110.888 173.603 111.249 173.56C111.707 173.507 112.078 173.464 112.363 173.431C112.648 173.395 112.855 173.337 112.984 173.257C113.114 173.178 113.178 173.048 113.178 172.869V172.835C113.178 172.4 113.056 172.064 112.81 171.825C112.568 171.587 112.207 171.467 111.727 171.467C111.226 171.467 110.832 171.578 110.543 171.8C110.258 172.019 110.061 172.263 109.952 172.531L108.555 172.213C108.72 171.749 108.962 171.375 109.281 171.089C109.602 170.801 109.972 170.592 110.389 170.463C110.807 170.33 111.246 170.264 111.707 170.264C112.012 170.264 112.335 170.301 112.676 170.374C113.021 170.443 113.342 170.572 113.641 170.761C113.942 170.95 114.189 171.22 114.381 171.572C114.574 171.92 114.67 172.372 114.67 172.929V178H113.218V176.956H113.158C113.062 177.148 112.918 177.337 112.726 177.523C112.534 177.708 112.287 177.862 111.985 177.985C111.683 178.108 111.322 178.169 110.901 178.169ZM111.224 176.976C111.635 176.976 111.987 176.895 112.278 176.732C112.573 176.57 112.797 176.358 112.95 176.096C113.105 175.831 113.183 175.547 113.183 175.246V174.261C113.13 174.314 113.027 174.364 112.875 174.411C112.726 174.454 112.555 174.492 112.363 174.525C112.171 174.555 111.983 174.583 111.801 174.609C111.619 174.633 111.466 174.652 111.344 174.669C111.055 174.705 110.792 174.767 110.553 174.853C110.318 174.939 110.129 175.063 109.987 175.226C109.847 175.385 109.778 175.597 109.778 175.862C109.778 176.23 109.914 176.509 110.185 176.697C110.457 176.883 110.804 176.976 111.224 176.976Z" fill="#F4F4F5"/>
<path d="M140 101C140 96.5817 143.582 93 148 93H228C232.418 93 236 96.5817 236 101V197C236 201.418 232.418 205 228 205H148C143.582 205 140 201.418 140 197V101Z" fill="#27272A"/>
<path d="M199 126.92C199 133.359 194 134.359 194 140.36C194 143.458 190.877 143.719 188.5 143.719C186.447 143.719 181.914 142.94 181.914 140.358C181.914 134.36 177 133.36 177 126.92C177 120.889 182.285 116 188.083 116C193.883 116 199 120.889 199 126.92Z" fill="#FFD983"/>
<path d="M192.167 148.36C192.167 149.188 189.933 150.86 188 150.86C186.067 150.86 183.833 149.188 183.833 148.36C183.833 147.532 186.066 147.86 188 147.86C189.933 147.86 192.167 147.532 192.167 148.36Z" fill="#CCD6DD"/>
<path d="M192.707 126.153C192.316 125.762 191.684 125.762 191.293 126.153L188 129.446L184.707 126.153C184.316 125.762 183.684 125.762 183.293 126.153C182.902 126.544 182.902 127.176 183.293 127.567L187 131.274V141.86C187 142.413 187.448 142.86 188 142.86C188.552 142.86 189 142.413 189 141.86V131.274L192.707 127.567C193.098 127.176 193.098 126.544 192.707 126.153V126.153Z" fill="#FFCC4D"/>
<path d="M194 146.86C194 147.964 193.104 148.86 192 148.86H184C182.896 148.86 182 147.964 182 146.86V140.86H194V146.86Z" fill="#99AAB5"/>
<path d="M181.999 147.86C181.519 147.86 181.095 147.513 181.014 147.024C180.923 146.48 181.291 145.964 181.836 145.874L193.836 143.874C194.38 143.776 194.896 144.151 194.986 144.696C195.077 145.24 194.709 145.756 194.164 145.846L182.164 147.846C182.109 147.856 182.053 147.86 181.999 147.86V147.86ZM181.999 143.86C181.519 143.86 181.095 143.513 181.014 143.024C180.923 142.48 181.291 141.964 181.836 141.874L193.836 139.874C194.38 139.777 194.896 140.151 194.986 140.696C195.077 141.24 194.709 141.756 194.164 141.846L182.164 143.846C182.109 143.856 182.053 143.86 181.999 143.86V143.86Z" fill="#CCD6DD"/>
<path d="M174.549 167.818V178H173.013V167.818H174.549ZM179.526 178.149C178.909 178.149 178.359 177.992 177.875 177.677C177.395 177.359 177.017 176.906 176.742 176.32C176.47 175.73 176.334 175.022 176.334 174.197C176.334 173.371 176.472 172.665 176.747 172.079C177.025 171.492 177.406 171.043 177.89 170.732C178.374 170.42 178.923 170.264 179.536 170.264C180.01 170.264 180.391 170.344 180.679 170.503C180.971 170.659 181.196 170.841 181.355 171.05C181.518 171.259 181.644 171.442 181.733 171.602H181.823V167.818H183.309V178H181.858V176.812H181.733C181.644 176.974 181.515 177.16 181.346 177.369C181.18 177.577 180.951 177.76 180.659 177.915C180.368 178.071 179.99 178.149 179.526 178.149ZM179.854 176.881C180.282 176.881 180.643 176.769 180.938 176.543C181.236 176.315 181.462 175.998 181.614 175.594C181.77 175.189 181.848 174.719 181.848 174.182C181.848 173.652 181.771 173.187 181.619 172.79C181.467 172.392 181.243 172.082 180.948 171.86C180.653 171.638 180.288 171.527 179.854 171.527C179.407 171.527 179.034 171.643 178.735 171.875C178.437 172.107 178.212 172.424 178.059 172.825C177.91 173.226 177.836 173.678 177.836 174.182C177.836 174.692 177.912 175.151 178.064 175.559C178.217 175.967 178.442 176.29 178.74 176.528C179.042 176.764 179.413 176.881 179.854 176.881ZM188.722 178.154C187.97 178.154 187.322 177.993 186.778 177.672C186.238 177.347 185.82 176.891 185.525 176.305C185.234 175.715 185.088 175.024 185.088 174.232C185.088 173.449 185.234 172.76 185.525 172.163C185.82 171.567 186.231 171.101 186.758 170.766C187.289 170.432 187.908 170.264 188.618 170.264C189.049 170.264 189.466 170.335 189.871 170.478C190.275 170.621 190.638 170.844 190.959 171.149C191.281 171.454 191.534 171.85 191.72 172.337C191.906 172.821 191.998 173.41 191.998 174.102V174.629H185.928V173.516H190.542C190.542 173.125 190.462 172.778 190.303 172.477C190.144 172.172 189.92 171.931 189.632 171.756C189.347 171.58 189.012 171.492 188.628 171.492C188.21 171.492 187.845 171.595 187.534 171.8C187.226 172.003 186.987 172.268 186.818 172.596C186.652 172.921 186.569 173.274 186.569 173.655V174.525C186.569 175.035 186.659 175.469 186.838 175.827C187.02 176.185 187.274 176.459 187.599 176.648C187.923 176.833 188.303 176.926 188.737 176.926C189.019 176.926 189.276 176.886 189.508 176.807C189.74 176.724 189.94 176.601 190.109 176.439C190.278 176.277 190.407 176.076 190.497 175.837L191.904 176.091C191.791 176.505 191.589 176.868 191.297 177.18C191.009 177.488 190.646 177.728 190.209 177.901C189.774 178.07 189.279 178.154 188.722 178.154ZM193.648 178V170.364H195.134V178H193.648ZM194.398 169.185C194.14 169.185 193.918 169.099 193.732 168.927C193.55 168.751 193.459 168.542 193.459 168.3C193.459 168.055 193.55 167.846 193.732 167.674C193.918 167.498 194.14 167.411 194.398 167.411C194.657 167.411 194.877 167.498 195.06 167.674C195.245 167.846 195.338 168.055 195.338 168.3C195.338 168.542 195.245 168.751 195.06 168.927C194.877 169.099 194.657 169.185 194.398 169.185ZM199.356 178.169C198.872 178.169 198.435 178.08 198.044 177.901C197.653 177.718 197.343 177.455 197.114 177.11C196.889 176.765 196.776 176.343 196.776 175.842C196.776 175.411 196.859 175.057 197.025 174.778C197.19 174.5 197.414 174.28 197.696 174.117C197.978 173.955 198.292 173.832 198.64 173.749C198.988 173.666 199.343 173.603 199.704 173.56C200.162 173.507 200.533 173.464 200.818 173.431C201.103 173.395 201.31 173.337 201.439 173.257C201.569 173.178 201.633 173.048 201.633 172.869V172.835C201.633 172.4 201.511 172.064 201.265 171.825C201.023 171.587 200.662 171.467 200.182 171.467C199.681 171.467 199.287 171.578 198.998 171.8C198.713 172.019 198.516 172.263 198.407 172.531L197.01 172.213C197.175 171.749 197.417 171.375 197.736 171.089C198.057 170.801 198.427 170.592 198.844 170.463C199.262 170.33 199.701 170.264 200.162 170.264C200.467 170.264 200.79 170.301 201.131 170.374C201.476 170.443 201.797 170.572 202.096 170.761C202.397 170.95 202.644 171.22 202.836 171.572C203.029 171.92 203.125 172.372 203.125 172.929V178H201.673V176.956H201.613C201.517 177.148 201.373 177.337 201.181 177.523C200.989 177.708 200.742 177.862 200.44 177.985C200.139 178.108 199.777 178.169 199.356 178.169ZM199.68 176.976C200.09 176.976 200.442 176.895 200.733 176.732C201.028 176.57 201.252 176.358 201.405 176.096C201.56 175.831 201.638 175.547 201.638 175.246V174.261C201.585 174.314 201.483 174.364 201.33 174.411C201.181 174.454 201.01 174.492 200.818 174.525C200.626 174.555 200.439 174.583 200.256 174.609C200.074 174.633 199.921 174.652 199.799 174.669C199.51 174.705 199.247 174.767 199.008 174.853C198.773 174.939 198.584 175.063 198.442 175.226C198.302 175.385 198.233 175.597 198.233 175.862C198.233 176.23 198.369 176.509 198.64 176.697C198.912 176.883 199.259 176.976 199.68 176.976Z" fill="#F4F4F5"/>
<path d="M244 101C244 96.5817 247.582 93 252 93H332C336.418 93 340 96.5817 340 101V197C340 201.418 336.418 205 332 205H252C247.582 205 244 201.418 244 197V101Z" fill="#27272A"/>
<path d="M310 127.875C310 124.009 306.866 120.875 303 120.875C301.833 120.875 300.735 121.165 299.768 121.669C297.686 118.842 294.343 117 290.563 117C285.431 117 281.088 120.38 279.64 125.036C276.982 125.653 275 128.03 275 130.875C275 133.854 277.174 136.32 280.021 136.788C280.237 140.737 283.498 143.875 287.5 143.875C289.676 143.875 291.63 142.942 293 141.462C294.37 142.942 296.323 143.875 298.5 143.875C302.643 143.875 306 140.518 306 136.375C306 135.665 305.895 134.981 305.711 134.33C308.23 133.271 310 130.78 310 127.875Z" fill="#85C8F8"/>
<path d="M279 149.875C280.657 149.875 282 148.532 282 146.875C282 145.218 280.657 143.875 279 143.875C277.343 143.875 276 145.218 276 146.875C276 148.532 277.343 149.875 279 149.875Z" fill="#85C8F8"/>
<path d="M283.048 172.909C283.048 173.996 282.849 174.931 282.451 175.713C282.054 176.492 281.508 177.092 280.816 177.513C280.126 177.93 279.343 178.139 278.464 178.139C277.583 178.139 276.795 177.93 276.103 177.513C275.413 177.092 274.87 176.49 274.472 175.708C274.074 174.926 273.875 173.993 273.875 172.909C273.875 171.822 274.074 170.889 274.472 170.11C274.87 169.328 275.413 168.728 276.103 168.31C276.795 167.889 277.583 167.679 278.464 167.679C279.343 167.679 280.126 167.889 280.816 168.31C281.508 168.728 282.054 169.328 282.451 170.11C282.849 170.889 283.048 171.822 283.048 172.909ZM281.527 172.909C281.527 172.08 281.392 171.383 281.124 170.816C280.859 170.246 280.494 169.815 280.03 169.523C279.57 169.228 279.048 169.081 278.464 169.081C277.878 169.081 277.354 169.228 276.893 169.523C276.432 169.815 276.068 170.246 275.799 170.816C275.534 171.383 275.402 172.08 275.402 172.909C275.402 173.738 275.534 174.437 275.799 175.007C276.068 175.574 276.432 176.005 276.893 176.3C277.354 176.591 277.878 176.737 278.464 176.737C279.048 176.737 279.57 176.591 280.03 176.3C280.494 176.005 280.859 175.574 281.124 175.007C281.392 174.437 281.527 173.738 281.527 172.909ZM289.681 174.833V170.364H291.173V178H289.711V176.678H289.632C289.456 177.085 289.174 177.425 288.786 177.697C288.402 177.965 287.923 178.099 287.35 178.099C286.859 178.099 286.425 177.992 286.047 177.776C285.673 177.558 285.378 177.234 285.162 176.807C284.95 176.379 284.844 175.851 284.844 175.221V170.364H286.331V175.042C286.331 175.562 286.475 175.977 286.763 176.285C287.051 176.593 287.426 176.747 287.887 176.747C288.165 176.747 288.442 176.678 288.717 176.538C288.995 176.399 289.226 176.189 289.408 175.907C289.594 175.625 289.685 175.267 289.681 174.833ZM296.735 170.364V171.557H292.564V170.364H296.735ZM293.682 168.534H295.169V175.758C295.169 176.046 295.212 176.263 295.298 176.409C295.384 176.552 295.495 176.649 295.631 176.702C295.77 176.752 295.921 176.777 296.084 176.777C296.203 176.777 296.307 176.769 296.397 176.752C296.486 176.736 296.556 176.722 296.606 176.712L296.874 177.94C296.788 177.973 296.665 178.007 296.506 178.04C296.347 178.076 296.148 178.096 295.91 178.099C295.518 178.106 295.154 178.036 294.816 177.891C294.478 177.745 294.204 177.519 293.995 177.214C293.787 176.91 293.682 176.527 293.682 176.066V168.534ZM298.379 178V170.364H299.816V171.577H299.896C300.035 171.166 300.28 170.843 300.631 170.607C300.986 170.369 301.387 170.249 301.834 170.249C301.927 170.249 302.037 170.253 302.163 170.259C302.292 170.266 302.393 170.274 302.466 170.284V171.706C302.406 171.689 302.3 171.671 302.148 171.651C301.995 171.628 301.843 171.616 301.69 171.616C301.339 171.616 301.026 171.691 300.751 171.84C300.479 171.986 300.263 172.19 300.104 172.452C299.945 172.71 299.866 173.005 299.866 173.337V178H298.379ZM306.695 178.154C305.979 178.154 305.355 177.99 304.821 177.662C304.287 177.334 303.873 176.875 303.578 176.285C303.283 175.695 303.136 175.005 303.136 174.217C303.136 173.424 303.283 172.732 303.578 172.138C303.873 171.545 304.287 171.085 304.821 170.756C305.355 170.428 305.979 170.264 306.695 170.264C307.411 170.264 308.036 170.428 308.57 170.756C309.103 171.085 309.518 171.545 309.813 172.138C310.108 172.732 310.255 173.424 310.255 174.217C310.255 175.005 310.108 175.695 309.813 176.285C309.518 176.875 309.103 177.334 308.57 177.662C308.036 177.99 307.411 178.154 306.695 178.154ZM306.7 176.906C307.164 176.906 307.549 176.784 307.854 176.538C308.159 176.293 308.384 175.967 308.53 175.559C308.679 175.151 308.754 174.702 308.754 174.212C308.754 173.724 308.679 173.277 308.53 172.869C308.384 172.458 308.159 172.129 307.854 171.88C307.549 171.631 307.164 171.507 306.7 171.507C306.233 171.507 305.845 171.631 305.537 171.88C305.232 172.129 305.005 172.458 304.856 172.869C304.71 173.277 304.637 173.724 304.637 174.212C304.637 174.702 304.71 175.151 304.856 175.559C305.005 175.967 305.232 176.293 305.537 176.538C305.845 176.784 306.233 176.906 306.7 176.906Z" fill="#F4F4F5"/>
<path d="M105.459 265V256.273H110.871V257.406H106.776V260.065H110.483V261.195H106.776V265H105.459ZM114.728 265.132C114.083 265.132 113.528 264.994 113.062 264.719C112.599 264.44 112.241 264.05 111.988 263.547C111.738 263.041 111.613 262.449 111.613 261.77C111.613 261.099 111.738 260.509 111.988 259.997C112.241 259.486 112.593 259.087 113.045 258.8C113.5 258.513 114.031 258.369 114.639 258.369C115.008 258.369 115.366 258.43 115.713 258.553C116.059 258.675 116.37 258.866 116.646 259.128C116.922 259.389 117.139 259.729 117.298 260.146C117.457 260.561 117.537 261.065 117.537 261.659V262.111H112.333V261.156H116.288C116.288 260.821 116.22 260.524 116.083 260.266C115.947 260.004 115.755 259.798 115.508 259.648C115.264 259.497 114.977 259.422 114.647 259.422C114.289 259.422 113.977 259.51 113.71 259.686C113.446 259.859 113.241 260.087 113.096 260.368C112.954 260.646 112.883 260.949 112.883 261.276V262.021C112.883 262.459 112.96 262.831 113.113 263.138C113.27 263.445 113.487 263.679 113.765 263.841C114.044 264 114.369 264.08 114.741 264.08C114.983 264.08 115.203 264.045 115.402 263.977C115.6 263.906 115.772 263.801 115.917 263.662C116.062 263.523 116.173 263.351 116.25 263.146L117.456 263.364C117.359 263.719 117.186 264.03 116.936 264.297C116.689 264.561 116.377 264.767 116.002 264.915C115.63 265.06 115.206 265.132 114.728 265.132ZM118.95 265V258.455H120.224V265H118.95ZM119.594 257.445C119.372 257.445 119.182 257.371 119.023 257.223C118.866 257.072 118.788 256.893 118.788 256.686C118.788 256.476 118.866 256.297 119.023 256.149C119.182 255.999 119.372 255.923 119.594 255.923C119.815 255.923 120.004 255.999 120.161 256.149C120.32 256.297 120.399 256.476 120.399 256.686C120.399 256.893 120.32 257.072 120.161 257.223C120.004 257.371 119.815 257.445 119.594 257.445ZM124.994 258.455V259.477H121.419V258.455H124.994ZM122.377 256.886H123.652V263.078C123.652 263.325 123.689 263.511 123.762 263.636C123.836 263.759 123.931 263.842 124.048 263.888C124.167 263.93 124.297 263.952 124.436 263.952C124.538 263.952 124.627 263.945 124.704 263.93C124.781 263.916 124.841 263.905 124.883 263.896L125.113 264.949C125.039 264.977 124.934 265.006 124.798 265.034C124.662 265.065 124.491 265.082 124.287 265.085C123.951 265.091 123.639 265.031 123.349 264.906C123.059 264.781 122.825 264.588 122.646 264.327C122.467 264.065 122.377 263.737 122.377 263.342V256.886ZM129.09 265.132C128.477 265.132 127.941 264.991 127.484 264.71C127.026 264.429 126.671 264.036 126.418 263.53C126.165 263.024 126.039 262.433 126.039 261.757C126.039 261.078 126.165 260.484 126.418 259.976C126.671 259.467 127.026 259.072 127.484 258.791C127.941 258.51 128.477 258.369 129.09 258.369C129.704 258.369 130.239 258.51 130.697 258.791C131.154 259.072 131.509 259.467 131.762 259.976C132.015 260.484 132.141 261.078 132.141 261.757C132.141 262.433 132.015 263.024 131.762 263.53C131.509 264.036 131.154 264.429 130.697 264.71C130.239 264.991 129.704 265.132 129.09 265.132ZM129.094 264.062C129.492 264.062 129.822 263.957 130.083 263.747C130.344 263.537 130.538 263.257 130.663 262.908C130.79 262.558 130.854 262.173 130.854 261.753C130.854 261.335 130.79 260.952 130.663 260.602C130.538 260.25 130.344 259.967 130.083 259.754C129.822 259.541 129.492 259.435 129.094 259.435C128.694 259.435 128.362 259.541 128.097 259.754C127.836 259.967 127.641 260.25 127.513 260.602C127.388 260.952 127.326 261.335 127.326 261.753C127.326 262.173 127.388 262.558 127.513 262.908C127.641 263.257 127.836 263.537 128.097 263.747C128.362 263.957 128.694 264.062 129.094 264.062ZM139.496 265.132C138.863 265.132 138.317 264.989 137.86 264.702C137.406 264.412 137.056 264.013 136.812 263.504C136.567 262.996 136.445 262.413 136.445 261.757C136.445 261.092 136.57 260.506 136.82 259.997C137.07 259.486 137.423 259.087 137.877 258.8C138.332 258.513 138.867 258.369 139.484 258.369C139.981 258.369 140.424 258.462 140.813 258.646C141.202 258.828 141.516 259.084 141.755 259.413C141.996 259.743 142.14 260.128 142.185 260.568H140.945C140.877 260.261 140.721 259.997 140.477 259.776C140.235 259.554 139.911 259.443 139.505 259.443C139.15 259.443 138.839 259.537 138.572 259.724C138.308 259.909 138.102 260.173 137.954 260.517C137.806 260.858 137.732 261.261 137.732 261.727C137.732 262.205 137.805 262.616 137.95 262.963C138.094 263.31 138.299 263.578 138.563 263.768C138.83 263.959 139.144 264.054 139.505 264.054C139.746 264.054 139.965 264.01 140.161 263.922C140.36 263.831 140.526 263.702 140.66 263.534C140.796 263.366 140.891 263.165 140.945 262.929H142.185C142.14 263.352 142.002 263.73 141.772 264.062C141.542 264.395 141.234 264.656 140.847 264.847C140.464 265.037 140.013 265.132 139.496 265.132ZM146.305 265.132C145.691 265.132 145.156 264.991 144.699 264.71C144.241 264.429 143.886 264.036 143.633 263.53C143.38 263.024 143.254 262.433 143.254 261.757C143.254 261.078 143.38 260.484 143.633 259.976C143.886 259.467 144.241 259.072 144.699 258.791C145.156 258.51 145.691 258.369 146.305 258.369C146.919 258.369 147.454 258.51 147.912 258.791C148.369 259.072 148.724 259.467 148.977 259.976C149.23 260.484 149.356 261.078 149.356 261.757C149.356 262.433 149.23 263.024 148.977 263.53C148.724 264.036 148.369 264.429 147.912 264.71C147.454 264.991 146.919 265.132 146.305 265.132ZM146.309 264.062C146.707 264.062 147.037 263.957 147.298 263.747C147.559 263.537 147.752 263.257 147.877 262.908C148.005 262.558 148.069 262.173 148.069 261.753C148.069 261.335 148.005 260.952 147.877 260.602C147.752 260.25 147.559 259.967 147.298 259.754C147.037 259.541 146.707 259.435 146.309 259.435C145.909 259.435 145.576 259.541 145.312 259.754C145.051 259.967 144.856 260.25 144.728 260.602C144.603 260.952 144.541 261.335 144.541 261.753C144.541 262.173 144.603 262.558 144.728 262.908C144.856 263.257 145.051 263.537 145.312 263.747C145.576 263.957 145.909 264.062 146.309 264.062ZM150.778 265V258.455H152.001V259.52H152.082C152.219 259.159 152.442 258.878 152.751 258.676C153.061 258.472 153.432 258.369 153.864 258.369C154.301 258.369 154.668 258.472 154.963 258.676C155.261 258.881 155.482 259.162 155.624 259.52H155.692C155.848 259.17 156.097 258.892 156.438 258.685C156.778 258.474 157.185 258.369 157.656 258.369C158.25 258.369 158.734 258.555 159.109 258.928C159.487 259.3 159.676 259.861 159.676 260.611V265H158.402V260.73C158.402 260.287 158.281 259.966 158.04 259.767C157.798 259.568 157.51 259.469 157.175 259.469C156.76 259.469 156.438 259.597 156.207 259.852C155.977 260.105 155.862 260.43 155.862 260.828V265H154.592V260.649C154.592 260.294 154.482 260.009 154.26 259.793C154.038 259.577 153.75 259.469 153.395 259.469C153.153 259.469 152.93 259.533 152.726 259.661C152.524 259.786 152.361 259.96 152.236 260.185C152.114 260.409 152.053 260.669 152.053 260.964V265H150.778ZM169.839 265.136L165.459 260.756C165.109 260.406 164.876 260 164.76 259.537C164.646 259.074 164.648 258.614 164.764 258.156C164.881 257.696 165.112 257.295 165.459 256.955C165.814 256.605 166.219 256.374 166.673 256.26C167.131 256.143 167.587 256.143 168.041 256.26C168.499 256.376 168.905 256.608 169.26 256.955L169.839 257.517L170.419 256.955C170.777 256.608 171.183 256.376 171.638 256.26C172.092 256.143 172.547 256.143 173.001 256.26C173.459 256.374 173.865 256.605 174.22 256.955C174.567 257.295 174.798 257.696 174.915 258.156C175.031 258.614 175.031 259.074 174.915 259.537C174.801 260 174.57 260.406 174.22 260.756L169.839 265.136ZM180.005 267.455V258.455H181.249V259.516H181.356C181.43 259.379 181.536 259.222 181.675 259.043C181.815 258.864 182.008 258.707 182.255 258.574C182.502 258.438 182.829 258.369 183.235 258.369C183.763 258.369 184.235 258.503 184.65 258.77C185.065 259.037 185.39 259.422 185.626 259.925C185.864 260.428 185.984 261.033 185.984 261.74C185.984 262.447 185.866 263.054 185.63 263.56C185.394 264.062 185.07 264.45 184.658 264.723C184.246 264.993 183.776 265.128 183.248 265.128C182.85 265.128 182.525 265.061 182.272 264.928C182.022 264.794 181.826 264.638 181.684 264.459C181.542 264.28 181.433 264.121 181.356 263.982H181.279V267.455H180.005ZM181.254 261.727C181.254 262.187 181.32 262.591 181.454 262.938C181.587 263.284 181.781 263.555 182.033 263.751C182.286 263.945 182.596 264.041 182.962 264.041C183.343 264.041 183.661 263.94 183.917 263.739C184.173 263.534 184.366 263.257 184.496 262.908C184.63 262.558 184.697 262.165 184.697 261.727C184.697 261.295 184.631 260.908 184.501 260.564C184.373 260.22 184.18 259.949 183.921 259.75C183.665 259.551 183.346 259.452 182.962 259.452C182.593 259.452 182.281 259.547 182.025 259.737C181.772 259.928 181.58 260.193 181.45 260.534C181.319 260.875 181.254 261.273 181.254 261.727ZM190.232 265.132C189.587 265.132 189.032 264.994 188.566 264.719C188.103 264.44 187.745 264.05 187.492 263.547C187.242 263.041 187.117 262.449 187.117 261.77C187.117 261.099 187.242 260.509 187.492 259.997C187.745 259.486 188.097 259.087 188.549 258.8C189.004 258.513 189.535 258.369 190.143 258.369C190.512 258.369 190.87 258.43 191.217 258.553C191.563 258.675 191.874 258.866 192.15 259.128C192.425 259.389 192.643 259.729 192.802 260.146C192.961 260.561 193.04 261.065 193.04 261.659V262.111H187.837V261.156H191.792C191.792 260.821 191.724 260.524 191.587 260.266C191.451 260.004 191.259 259.798 191.012 259.648C190.768 259.497 190.481 259.422 190.151 259.422C189.793 259.422 189.481 259.51 189.214 259.686C188.95 259.859 188.745 260.087 188.6 260.368C188.458 260.646 188.387 260.949 188.387 261.276V262.021C188.387 262.459 188.464 262.831 188.617 263.138C188.773 263.445 188.991 263.679 189.269 263.841C189.548 264 189.873 264.08 190.245 264.08C190.487 264.08 190.707 264.045 190.906 263.977C191.104 263.906 191.276 263.801 191.421 263.662C191.566 263.523 191.677 263.351 191.754 263.146L192.96 263.364C192.863 263.719 192.69 264.03 192.44 264.297C192.192 264.561 191.881 264.767 191.506 264.915C191.134 265.06 190.71 265.132 190.232 265.132ZM195.728 256.273V265H194.454V256.273H195.728ZM199.347 265.145C198.933 265.145 198.558 265.068 198.222 264.915C197.887 264.759 197.621 264.533 197.425 264.237C197.232 263.942 197.136 263.58 197.136 263.151C197.136 262.781 197.207 262.477 197.349 262.239C197.491 262 197.683 261.811 197.924 261.672C198.165 261.533 198.435 261.428 198.734 261.357C199.032 261.286 199.336 261.232 199.646 261.195C200.038 261.149 200.356 261.112 200.6 261.084C200.844 261.053 201.022 261.003 201.133 260.935C201.244 260.866 201.299 260.756 201.299 260.602V260.572C201.299 260.2 201.194 259.912 200.984 259.707C200.776 259.503 200.467 259.401 200.055 259.401C199.626 259.401 199.288 259.496 199.04 259.686C198.796 259.874 198.627 260.082 198.533 260.312L197.336 260.04C197.478 259.642 197.685 259.321 197.958 259.077C198.234 258.83 198.55 258.651 198.908 258.54C199.266 258.426 199.643 258.369 200.038 258.369C200.299 258.369 200.576 258.401 200.869 258.463C201.164 258.523 201.44 258.634 201.695 258.795C201.954 258.957 202.165 259.189 202.33 259.49C202.495 259.788 202.577 260.176 202.577 260.653V265H201.333V264.105H201.282C201.2 264.27 201.076 264.432 200.911 264.591C200.746 264.75 200.535 264.882 200.276 264.987C200.018 265.092 199.708 265.145 199.347 265.145ZM199.624 264.122C199.977 264.122 200.278 264.053 200.528 263.913C200.781 263.774 200.972 263.592 201.103 263.368C201.237 263.141 201.303 262.898 201.303 262.639V261.795C201.258 261.841 201.17 261.884 201.039 261.923C200.911 261.96 200.765 261.993 200.6 262.021C200.435 262.047 200.275 262.071 200.119 262.094C199.962 262.114 199.832 262.131 199.727 262.145C199.479 262.176 199.254 262.229 199.049 262.303C198.847 262.376 198.685 262.483 198.563 262.622C198.444 262.759 198.384 262.94 198.384 263.168C198.384 263.483 198.501 263.722 198.734 263.884C198.967 264.043 199.263 264.122 199.624 264.122ZM207.553 265V256.273H210.663C211.339 256.273 211.901 256.389 212.347 256.622C212.795 256.855 213.131 257.178 213.352 257.589C213.574 257.999 213.685 258.472 213.685 259.009C213.685 259.543 213.572 260.013 213.348 260.419C213.126 260.822 212.791 261.136 212.342 261.361C211.896 261.585 211.335 261.697 210.659 261.697H208.303V260.564H210.54C210.966 260.564 211.313 260.503 211.58 260.381C211.849 260.259 212.047 260.081 212.172 259.848C212.297 259.615 212.359 259.335 212.359 259.009C212.359 258.679 212.295 258.393 212.168 258.152C212.043 257.911 211.845 257.726 211.575 257.598C211.308 257.467 210.957 257.402 210.523 257.402H208.869V265H207.553ZM211.861 261.062L214.017 265H212.517L210.403 261.062H211.861ZM217.86 265.132C217.246 265.132 216.711 264.991 216.253 264.71C215.796 264.429 215.441 264.036 215.188 263.53C214.935 263.024 214.809 262.433 214.809 261.757C214.809 261.078 214.935 260.484 215.188 259.976C215.441 259.467 215.796 259.072 216.253 258.791C216.711 258.51 217.246 258.369 217.86 258.369C218.473 258.369 219.009 258.51 219.466 258.791C219.924 259.072 220.279 259.467 220.532 259.976C220.784 260.484 220.911 261.078 220.911 261.757C220.911 262.433 220.784 263.024 220.532 263.53C220.279 264.036 219.924 264.429 219.466 264.71C219.009 264.991 218.473 265.132 217.86 265.132ZM217.864 264.062C218.262 264.062 218.591 263.957 218.853 263.747C219.114 263.537 219.307 263.257 219.432 262.908C219.56 262.558 219.624 262.173 219.624 261.753C219.624 261.335 219.56 260.952 219.432 260.602C219.307 260.25 219.114 259.967 218.853 259.754C218.591 259.541 218.262 259.435 217.864 259.435C217.463 259.435 217.131 259.541 216.867 259.754C216.605 259.967 216.411 260.25 216.283 260.602C216.158 260.952 216.096 261.335 216.096 261.753C216.096 262.173 216.158 262.558 216.283 262.908C216.411 263.257 216.605 263.537 216.867 263.747C217.131 263.957 217.463 264.062 217.864 264.062ZM225.09 265.132C224.457 265.132 223.911 264.989 223.454 264.702C222.999 264.412 222.65 264.013 222.406 263.504C222.161 262.996 222.039 262.413 222.039 261.757C222.039 261.092 222.164 260.506 222.414 259.997C222.664 259.486 223.016 259.087 223.471 258.8C223.925 258.513 224.461 258.369 225.077 258.369C225.575 258.369 226.018 258.462 226.407 258.646C226.796 258.828 227.11 259.084 227.349 259.413C227.59 259.743 227.734 260.128 227.779 260.568H226.539C226.471 260.261 226.315 259.997 226.07 259.776C225.829 259.554 225.505 259.443 225.099 259.443C224.744 259.443 224.433 259.537 224.165 259.724C223.901 259.909 223.695 260.173 223.548 260.517C223.4 260.858 223.326 261.261 223.326 261.727C223.326 262.205 223.398 262.616 223.543 262.963C223.688 263.31 223.893 263.578 224.157 263.768C224.424 263.959 224.738 264.054 225.099 264.054C225.34 264.054 225.559 264.01 225.755 263.922C225.954 263.831 226.12 263.702 226.254 263.534C226.39 263.366 226.485 263.165 226.539 262.929H227.779C227.734 263.352 227.596 263.73 227.366 264.062C227.136 264.395 226.827 264.656 226.441 264.847C226.058 265.037 225.607 265.132 225.09 265.132ZM230.314 262.78L230.305 261.224H230.527L233.135 258.455H234.66L231.686 261.608H231.485L230.314 262.78ZM229.142 265V256.273H230.416V265H229.142ZM233.275 265L230.931 261.889L231.809 260.999L234.839 265H233.275ZM238.373 265.132C237.728 265.132 237.173 264.994 236.707 264.719C236.244 264.44 235.886 264.05 235.633 263.547C235.383 263.041 235.258 262.449 235.258 261.77C235.258 261.099 235.383 260.509 235.633 259.997C235.886 259.486 236.238 259.087 236.69 258.8C237.144 258.513 237.675 258.369 238.283 258.369C238.653 258.369 239.011 258.43 239.357 258.553C239.704 258.675 240.015 258.866 240.29 259.128C240.566 259.389 240.783 259.729 240.942 260.146C241.102 260.561 241.181 261.065 241.181 261.659V262.111H235.978V261.156H239.933C239.933 260.821 239.864 260.524 239.728 260.266C239.592 260.004 239.4 259.798 239.153 259.648C238.908 259.497 238.621 259.422 238.292 259.422C237.934 259.422 237.621 259.51 237.354 259.686C237.09 259.859 236.886 260.087 236.741 260.368C236.599 260.646 236.528 260.949 236.528 261.276V262.021C236.528 262.459 236.604 262.831 236.758 263.138C236.914 263.445 237.131 263.679 237.41 263.841C237.688 264 238.013 264.08 238.386 264.08C238.627 264.08 238.847 264.045 239.046 263.977C239.245 263.906 239.417 263.801 239.562 263.662C239.707 263.523 239.817 263.351 239.894 263.146L241.1 263.364C241.004 263.719 240.83 264.03 240.58 264.297C240.333 264.561 240.022 264.767 239.647 264.915C239.275 265.06 238.85 265.132 238.373 265.132ZM245.65 258.455V259.477H242.075V258.455H245.65ZM243.034 256.886H244.308V263.078C244.308 263.325 244.345 263.511 244.419 263.636C244.493 263.759 244.588 263.842 244.704 263.888C244.824 263.93 244.953 263.952 245.092 263.952C245.194 263.952 245.284 263.945 245.36 263.93C245.437 263.916 245.497 263.905 245.539 263.896L245.77 264.949C245.696 264.977 245.591 265.006 245.454 265.034C245.318 265.065 245.147 265.082 244.943 265.085C244.608 265.091 244.295 265.031 244.005 264.906C243.716 264.781 243.481 264.588 243.302 264.327C243.123 264.065 243.034 263.737 243.034 263.342V256.886ZM251.859 260.053L250.704 260.257C250.656 260.109 250.579 259.969 250.474 259.835C250.372 259.702 250.233 259.592 250.056 259.507C249.88 259.422 249.66 259.379 249.396 259.379C249.035 259.379 248.734 259.46 248.493 259.622C248.251 259.781 248.13 259.987 248.13 260.24C248.13 260.459 248.211 260.635 248.373 260.768C248.535 260.902 248.797 261.011 249.157 261.097L250.197 261.335C250.799 261.474 251.248 261.689 251.544 261.979C251.839 262.268 251.987 262.645 251.987 263.108C251.987 263.5 251.873 263.849 251.646 264.156C251.422 264.46 251.108 264.699 250.704 264.872C250.304 265.045 249.839 265.132 249.311 265.132C248.578 265.132 247.98 264.976 247.517 264.663C247.054 264.348 246.77 263.901 246.664 263.321L247.896 263.134C247.973 263.455 248.13 263.697 248.369 263.862C248.608 264.024 248.919 264.105 249.302 264.105C249.72 264.105 250.054 264.018 250.304 263.845C250.554 263.669 250.679 263.455 250.679 263.202C250.679 262.997 250.602 262.825 250.449 262.686C250.298 262.547 250.066 262.442 249.754 262.371L248.646 262.128C248.035 261.989 247.583 261.767 247.291 261.463C247.001 261.159 246.856 260.774 246.856 260.308C246.856 259.922 246.964 259.584 247.18 259.294C247.396 259.004 247.694 258.778 248.075 258.616C248.456 258.452 248.892 258.369 249.383 258.369C250.091 258.369 250.647 258.523 251.054 258.83C251.46 259.134 251.728 259.541 251.859 260.053ZM256.209 265.132C255.564 265.132 255.009 264.994 254.543 264.719C254.08 264.44 253.722 264.05 253.469 263.547C253.219 263.041 253.094 262.449 253.094 261.77C253.094 261.099 253.219 260.509 253.469 259.997C253.722 259.486 254.074 259.087 254.526 258.8C254.98 258.513 255.511 258.369 256.119 258.369C256.489 258.369 256.847 258.43 257.193 258.553C257.54 258.675 257.851 258.866 258.126 259.128C258.402 259.389 258.619 259.729 258.778 260.146C258.938 260.561 259.017 261.065 259.017 261.659V262.111H253.814V261.156H257.768C257.768 260.821 257.7 260.524 257.564 260.266C257.428 260.004 257.236 259.798 256.989 259.648C256.744 259.497 256.457 259.422 256.128 259.422C255.77 259.422 255.457 259.51 255.19 259.686C254.926 259.859 254.722 260.087 254.577 260.368C254.435 260.646 254.364 260.949 254.364 261.276V262.021C254.364 262.459 254.44 262.831 254.594 263.138C254.75 263.445 254.967 263.679 255.246 263.841C255.524 264 255.849 264.08 256.222 264.08C256.463 264.08 256.683 264.045 256.882 263.977C257.081 263.906 257.253 263.801 257.398 263.662C257.543 263.523 257.653 263.351 257.73 263.146L258.936 263.364C258.839 263.719 258.666 264.03 258.416 264.297C258.169 264.561 257.858 264.767 257.483 264.915C257.111 265.06 256.686 265.132 256.209 265.132ZM262.336 265.145C261.921 265.145 261.546 265.068 261.211 264.915C260.875 264.759 260.61 264.533 260.414 264.237C260.221 263.942 260.124 263.58 260.124 263.151C260.124 262.781 260.195 262.477 260.337 262.239C260.479 262 260.671 261.811 260.912 261.672C261.154 261.533 261.424 261.428 261.722 261.357C262.02 261.286 262.324 261.232 262.634 261.195C263.026 261.149 263.344 261.112 263.588 261.084C263.833 261.053 264.01 261.003 264.121 260.935C264.232 260.866 264.287 260.756 264.287 260.602V260.572C264.287 260.2 264.182 259.912 263.972 259.707C263.765 259.503 263.455 259.401 263.043 259.401C262.614 259.401 262.276 259.496 262.029 259.686C261.784 259.874 261.615 260.082 261.522 260.312L260.324 260.04C260.466 259.642 260.674 259.321 260.946 259.077C261.222 258.83 261.539 258.651 261.897 258.54C262.255 258.426 262.631 258.369 263.026 258.369C263.287 258.369 263.564 258.401 263.857 258.463C264.152 258.523 264.428 258.634 264.684 258.795C264.942 258.957 265.154 259.189 265.319 259.49C265.483 259.788 265.566 260.176 265.566 260.653V265H264.321V264.105H264.27C264.188 264.27 264.064 264.432 263.9 264.591C263.735 264.75 263.523 264.882 263.265 264.987C263.006 265.092 262.696 265.145 262.336 265.145ZM262.613 264.122C262.965 264.122 263.266 264.053 263.516 263.913C263.769 263.774 263.961 263.592 264.091 263.368C264.225 263.141 264.292 262.898 264.292 262.639V261.795C264.246 261.841 264.158 261.884 264.027 261.923C263.9 261.96 263.753 261.993 263.588 262.021C263.424 262.047 263.263 262.071 263.107 262.094C262.951 262.114 262.82 262.131 262.715 262.145C262.468 262.176 262.242 262.229 262.037 262.303C261.836 262.376 261.674 262.483 261.551 262.622C261.432 262.759 261.373 262.94 261.373 263.168C261.373 263.483 261.489 263.722 261.722 263.884C261.955 264.043 262.252 264.122 262.613 264.122ZM270.318 258.455V259.477H266.743V258.455H270.318ZM267.702 256.886H268.976V263.078C268.976 263.325 269.013 263.511 269.087 263.636C269.161 263.759 269.256 263.842 269.372 263.888C269.491 263.93 269.621 263.952 269.76 263.952C269.862 263.952 269.952 263.945 270.028 263.93C270.105 263.916 270.165 263.905 270.207 263.896L270.438 264.949C270.364 264.977 270.259 265.006 270.122 265.034C269.986 265.065 269.815 265.082 269.611 265.085C269.276 265.091 268.963 265.031 268.673 264.906C268.384 264.781 268.149 264.588 267.97 264.327C267.791 264.065 267.702 263.737 267.702 263.342V256.886Z" fill="#A1A1AA"/>
<path d="M206.594 267.386H270.868V268.205H206.594V267.386Z" fill="#A1A1AA"/>
<a href="https://www.rocketseat.com.br/">
<rect fill="black" fill-opacity="0" x="102.094" y="0.738636" width="64.2742" height="14.5227"/>
</a>
<path d="M332.5 44.5L323.5 53.5" stroke="#A1A1AA" stroke-width="1.5" stroke-linecap="round" stroke-linejoin="round"/>
<path d="M332.5 53.5L323.5 44.5" stroke="#A1A1AA" stroke-width="1.5" stroke-linecap="round" stroke-linejoin="round"/>
</g>
<defs>
<filter id="filter0_d_10_730" x="-12" y="-3" width="400" height="328" filterUnits="userSpaceOnUse" color-interpolation-filters="sRGB">
<feFlood flood-opacity="0" result="BackgroundImageFix"/>
<feColorMatrix in="SourceAlpha" type="matrix" values="0 0 0 0 0 0 0 0 0 0 0 0 0 0 0 0 0 0 127 0" result="hardAlpha"/>
<feOffset dy="8"/>
<feGaussianBlur stdDeviation="16"/>
<feComposite in2="hardAlpha" operator="out"/>
<feColorMatrix type="matrix" values="0 0 0 0 0 0 0 0 0 0 0 0 0 0 0 0 0 0 0.15 0"/>
<feBlend mode="normal" in2="BackgroundImageFix" result="effect1_dropShadow_10_730"/>
<feBlend mode="normal" in="SourceGraphic" in2="effect1_dropShadow_10_730" result="shape"/>
</filter>
</defs>
</svg>
